# xmcd CD database file
#
# Track frame offsets:
#	150
#	13025
#	28139
#	40510
#	53049
#	69419
#	82819
#	92364
#	106757
#	118960
#	136218
#	150987
#	166040
#	179426
#	192825
#	206186
#
# Disc length: 2916 seconds
#
# Revision: 0
# Processed by: cddbd v1.5.2PL0 Copyright (c) Steve Scherf et al.
# Submitted via: CDex 1.51
#
DISCID=c10b6210
DTITLE=Cocktail Hour- Toast To Havana - Disc 2
DYEAR=1900
DGENRE=Salsa
TTITLE0=Amorosa Guajira
TTITLE1=Abrete Sesame
TTITLE2=Se Va COnmigo
TTITLE3=eterna Primavera
TTITLE4=Me Faltabas Tu
TTITLE5=Mi Merecumbe
TTITLE6=Den Tenerio
TTITLE7=Camino Y Prende El Fogon
TTITLE8=Son De La Loma
TTITLE9=Norte Y Sure
TTITLE10=Alegre Conga
TTITLE11=Quitate El Chaquerton
TTITLE12=Cha Cha Cha De Los Perros
TTITLE13=Pinchame Con Tenedor
TTITLE14=Cha Cha Cha De Los Perros 2
TTITLE15=Manana Por La Manana
EXTD=YEAR: 1900
EXTT0=
EXTT1=
EXTT2=
EXTT3=
EXTT4=
EXTT5=
EXTT6=
EXTT7=
EXTT8=
EXTT9=
EXTT10=
EXTT11=
EXTT12=
EXTT13=
EXTT14=
EXTT15=
PLAYORDER=
